<svg xmlns="http://www.w3.org/2000/svg" version="1.1" xmlns:xlink="http://www.w3.org/1999/xlink" xmlns:svgjs="http://svgjs.dev/svgjs" width="2000" height="787" viewBox="0 0 2000 787"><g transform="matrix(1,0,0,1,-1.212103318452023,-0.3331417496584663)"><svg viewBox="0 0 396 156" data-background-color="#ffffff" preserveAspectRatio="xMidYMid meet" height="787" width="2000" xmlns="http://www.w3.org/2000/svg" xmlns:xlink="http://www.w3.org/1999/xlink"><g id="tight-bounds" transform="matrix(1,0,0,1,0.23999645705350758,0.06603572166038418)"><svg viewBox="0 0 395.52 155.86792855667923" height="155.86792855667923" width="395.52"><g><svg viewBox="0 0 395.52 155.86792855667923" height="155.86792855667923" width="395.52"><g transform="matrix(1,0,0,1,0,96.33263295919497)"><svg viewBox="0 0 395.52 59.53529559748427" height="59.53529559748427" width="395.52"><g id="textblocktransform"><svg viewBox="0 0 395.52 59.53529559748427" height="59.53529559748427" width="395.52" id="textblock"><g><svg viewBox="0 0 395.52 59.53529559748427" height="59.53529559748427" width="395.52"><g transform="matrix(1,0,0,1,0,0)"><svg width="395.52" viewBox="2.25 -35.400001525878906 238.47999572753906 35.900001525878906" height="59.53529559748427" data-palette-color="#4b91f1"><path d="M29.6-32.7L29.6-32.7Q30.45-32.25 30.58-31.35 30.7-30.45 30.1-29.7L30.1-29.7Q29.65-29.05 28.95-29 28.25-28.95 27.55-29.3L27.55-29.3Q25.9-30.3 24-30.88 22.1-31.45 20-31.45L20-31.45Q17.05-31.45 14.6-30.43 12.15-29.4 10.35-27.55 8.55-25.7 7.55-23.15 6.55-20.6 6.55-17.5L6.55-17.5Q6.55-14.2 7.6-11.6 8.65-9 10.48-7.18 12.3-5.35 14.73-4.4 17.15-3.45 20-3.45L20-3.45Q22.05-3.45 23.95-4 25.85-4.55 27.55-5.6L27.55-5.6Q28.25-5.95 28.95-5.85 29.65-5.75 30.15-5.15L30.15-5.15Q30.75-4.35 30.6-3.48 30.45-2.6 29.65-2.2L29.65-2.2Q28.4-1.45 26.8-0.83 25.2-0.2 23.48 0.15 21.75 0.5 20 0.5L20 0.5Q16.4 0.5 13.2-0.75 10-2 7.55-4.35 5.1-6.7 3.68-10.03 2.25-13.35 2.25-17.5L2.25-17.5Q2.25-21.4 3.6-24.65 4.95-27.9 7.38-30.3 9.8-32.7 13.03-34.05 16.25-35.4 20-35.4L20-35.4Q22.6-35.4 25.08-34.7 27.55-34 29.6-32.7ZM57-26.1L57-26.1Q57.9-26.1 58.45-25.53 59-24.95 59-24.1L59-24.1 59-2.05Q59-1.2 58.42-0.6 57.85 0 57 0L57 0Q56.15 0 55.57-0.6 55-1.2 55-2.05L55-2.05 55-6.8 55.95-6.9Q55.95-5.8 55.2-4.5 54.45-3.2 53.15-2.08 51.85-0.95 50.1-0.23 48.35 0.5 46.3 0.5L46.3 0.5Q42.9 0.5 40.17-1.28 37.45-3.05 35.9-6.1 34.35-9.15 34.35-13.05L34.35-13.05Q34.35-17 35.92-20.03 37.5-23.05 40.17-24.78 42.85-26.5 46.2-26.5L46.2-26.5Q48.35-26.5 50.2-25.8 52.05-25.1 53.42-23.9 54.8-22.7 55.55-21.25 56.3-19.8 56.3-18.35L56.3-18.35 55-18.65 55-24.1Q55-24.95 55.57-25.53 56.15-26.1 57-26.1ZM46.7-3.2L46.7-3.2Q49.2-3.2 51.12-4.5 53.05-5.8 54.15-8.03 55.25-10.25 55.25-13.05L55.25-13.05Q55.25-15.8 54.15-18.03 53.05-20.25 51.12-21.53 49.2-22.8 46.7-22.8L46.7-22.8Q44.25-22.8 42.32-21.55 40.4-20.3 39.3-18.1 38.2-15.9 38.2-13.05L38.2-13.05Q38.2-10.25 39.3-8.03 40.4-5.8 42.32-4.5 44.25-3.2 46.7-3.2ZM65.4-25.7L65.4-25.7 77.15-25.7Q77.95-25.7 78.47-25.15 79-24.6 79-23.85L79-23.85Q79-23.05 78.47-22.53 77.95-22 77.15-22L77.15-22 65.4-22Q64.65-22 64.1-22.55 63.55-23.1 63.55-23.9L63.55-23.9Q63.55-24.65 64.1-25.18 64.65-25.7 65.4-25.7ZM70.65-32.5L70.65-32.5Q71.5-32.5 72.05-31.93 72.6-31.35 72.6-30.5L72.6-30.5 72.6-6.35Q72.6-5.15 72.95-4.55 73.3-3.95 73.87-3.73 74.45-3.5 75-3.5L75-3.5Q75.5-3.5 75.87-3.68 76.25-3.85 76.75-3.85L76.75-3.85Q77.25-3.85 77.67-3.38 78.1-2.9 78.1-2.15L78.1-2.15Q78.1-1.25 77.05-0.63 76 0 74.7 0L74.7 0Q74 0 72.97-0.1 71.95-0.2 70.95-0.75 69.95-1.3 69.27-2.58 68.6-3.85 68.6-6.15L68.6-6.15 68.6-30.5Q68.6-31.35 69.2-31.93 69.8-32.5 70.65-32.5ZM88.39-3.95L104.54-3.95Q105.39-3.95 105.99-3.38 106.59-2.8 106.59-1.95L106.59-1.95Q106.59-1.1 105.99-0.55 105.39 0 104.54 0L104.54 0 87.24 0Q86.39 0 85.82-0.6 85.24-1.2 85.24-2.05L85.24-2.05 85.24-33Q85.24-33.85 85.84-34.43 86.44-35 87.34-35L87.34-35Q88.19-35 88.79-34.43 89.39-33.85 89.39-33L89.39-33 89.39-3.05 88.39-3.95ZM132.69-26.1L132.69-26.1Q133.59-26.1 134.14-25.53 134.69-24.95 134.69-24.1L134.69-24.1 134.69-2.05Q134.69-1.2 134.12-0.6 133.54 0 132.69 0L132.69 0Q131.84 0 131.27-0.6 130.69-1.2 130.69-2.05L130.69-2.05 130.69-6.8 131.64-6.9Q131.64-5.8 130.89-4.5 130.14-3.2 128.84-2.08 127.54-0.95 125.79-0.23 124.04 0.5 121.99 0.5L121.99 0.5Q118.59 0.5 115.87-1.28 113.14-3.05 111.59-6.1 110.04-9.15 110.04-13.05L110.04-13.05Q110.04-17 111.62-20.03 113.19-23.05 115.87-24.78 118.54-26.5 121.89-26.5L121.89-26.5Q124.04-26.5 125.89-25.8 127.74-25.1 129.12-23.9 130.49-22.7 131.24-21.25 131.99-19.8 131.99-18.35L131.99-18.35 130.69-18.65 130.69-24.1Q130.69-24.95 131.27-25.53 131.84-26.1 132.69-26.1ZM122.39-3.2L122.39-3.2Q124.89-3.2 126.82-4.5 128.74-5.8 129.84-8.03 130.94-10.25 130.94-13.05L130.94-13.05Q130.94-15.8 129.84-18.03 128.74-20.25 126.82-21.53 124.89-22.8 122.39-22.8L122.39-22.8Q119.94-22.8 118.02-21.55 116.09-20.3 114.99-18.1 113.89-15.9 113.89-13.05L113.89-13.05Q113.89-10.25 114.99-8.03 116.09-5.8 118.02-4.5 119.94-3.2 122.39-3.2ZM154.94-26.5L154.94-26.5Q158.34-26.5 160.29-25.1 162.24-23.7 163.06-21.35 163.89-19 163.89-16.1L163.89-16.1 163.89-2.05Q163.89-1.2 163.31-0.6 162.74 0 161.89 0L161.89 0Q161.04 0 160.46-0.6 159.89-1.2 159.89-2.05L159.89-2.05 159.89-16Q159.89-17.9 159.31-19.43 158.74-20.95 157.41-21.88 156.09-22.8 153.79-22.8L153.79-22.8Q151.69-22.8 149.94-21.88 148.19-20.95 147.14-19.43 146.09-17.9 146.09-16L146.09-16 146.09-2.05Q146.09-1.2 145.51-0.6 144.94 0 144.09 0L144.09 0Q143.24 0 142.66-0.6 142.09-1.2 142.09-2.05L142.09-2.05 142.09-23.85Q142.09-24.7 142.66-25.28 143.24-25.85 144.09-25.85L144.09-25.85Q144.99-25.85 145.54-25.28 146.09-24.7 146.09-23.85L146.09-23.85 146.09-20.3 145.09-19.2Q145.34-20.5 146.24-21.83 147.14-23.15 148.49-24.2 149.84-25.25 151.49-25.88 153.14-26.5 154.94-26.5ZM182.54-26.5L182.54-26.5Q185.09-26.5 187.14-25.95 189.19-25.4 190.39-24.45 191.59-23.5 191.59-22.3L191.59-22.3Q191.59-21.65 191.16-21.05 190.74-20.45 189.94-20.45L189.94-20.45Q189.29-20.45 188.86-20.7 188.44-20.95 188.06-21.35 187.69-21.75 187.04-22.05L187.04-22.05Q186.44-22.4 185.29-22.6 184.14-22.8 182.94-22.8L182.94-22.8Q180.24-22.8 178.14-21.5 176.04-20.2 174.86-18 173.69-15.8 173.69-13L173.69-13Q173.69-10.2 174.84-8 175.99-5.8 178.04-4.5 180.09-3.2 182.79-3.2L182.79-3.2Q184.54-3.2 185.56-3.5 186.59-3.8 187.34-4.2L187.34-4.2Q188.19-4.7 188.66-5.2 189.14-5.7 189.99-5.7L189.99-5.7Q190.84-5.7 191.29-5.15 191.74-4.6 191.74-3.8L191.74-3.8Q191.74-2.9 190.49-1.9 189.24-0.9 187.11-0.2 184.99 0.5 182.34 0.5L182.34 0.5Q178.54 0.5 175.69-1.28 172.84-3.05 171.26-6.13 169.69-9.2 169.69-13L169.69-13Q169.69-16.8 171.31-19.85 172.94-22.9 175.84-24.7 178.74-26.5 182.54-26.5ZM208.68 0.5L208.68 0.5Q204.68 0.5 201.68-1.2 198.68-2.9 197.03-5.88 195.38-8.85 195.38-12.75L195.38-12.75Q195.38-17.1 197.11-20.18 198.83-23.25 201.58-24.88 204.33-26.5 207.43-26.5L207.43-26.5Q209.78-26.5 211.91-25.65 214.03-24.8 215.71-23.18 217.38-21.55 218.38-19.28 219.38-17 219.43-14.2L219.43-14.2Q219.38-13.4 218.78-12.85 218.18-12.3 217.38-12.3L217.38-12.3 197.63-12.3 196.73-15.75 215.98-15.75 215.18-15.05 215.18-16.15Q215.03-18.2 213.86-19.68 212.68-21.15 210.98-21.95 209.28-22.75 207.43-22.75L207.43-22.75Q205.93-22.75 204.46-22.23 202.98-21.7 201.81-20.53 200.63-19.35 199.93-17.5 199.23-15.65 199.23-13.05L199.23-13.05Q199.23-10.15 200.41-7.95 201.58-5.75 203.68-4.48 205.78-3.2 208.53-3.2L208.53-3.2Q210.33-3.2 211.63-3.65 212.93-4.1 213.86-4.78 214.78-5.45 215.43-6.15L215.43-6.15Q216.08-6.6 216.73-6.6L216.73-6.6Q217.43-6.6 217.93-6.1 218.43-5.6 218.43-4.9L218.43-4.9Q218.43-4.05 217.63-3.4L217.63-3.4Q216.18-1.85 213.81-0.68 211.43 0.5 208.68 0.5ZM227.18 0L227.18 0Q226.33 0 225.76-0.6 225.18-1.2 225.18-2.05L225.18-2.05 225.18-23.85Q225.18-24.7 225.76-25.28 226.33-25.85 227.18-25.85L227.18-25.85Q228.08-25.85 228.63-25.28 229.18-24.7 229.18-23.85L229.18-23.85 229.18-17.25 228.58-18.3Q228.88-19.85 229.66-21.33 230.43-22.8 231.63-23.98 232.83-25.15 234.38-25.83 235.93-26.5 237.78-26.5L237.78-26.5Q238.88-26.5 239.81-25.98 240.73-25.45 240.73-24.5L240.73-24.5Q240.73-23.45 240.18-22.95 239.63-22.45 238.93-22.45L238.93-22.45Q238.28-22.45 237.68-22.73 237.08-23 236.18-23L236.18-23Q234.93-23 233.71-22.33 232.48-21.65 231.46-20.4 230.43-19.15 229.81-17.57 229.18-16 229.18-14.2L229.18-14.2 229.18-2.05Q229.18-1.2 228.61-0.6 228.03 0 227.18 0Z" opacity="1" transform="matrix(1,0,0,1,0,0)" fill="#000000" class="wordmark-text-0" data-fill-palette-color="primary" id="text-0"></path></svg></g></svg></g></svg></g></svg></g><g transform="matrix(1,0,0,1,150.70369789376565,0)"><svg viewBox="0 0 94.11260421246865 82.27777851572327" height="82.27777851572327" width="94.11260421246865"><g><svg xmlns="http://www.w3.org/2000/svg" xmlns:xlink="http://www.w3.org/1999/xlink" version="1.1" x="0" y="0" viewBox="1.3889994621276855 7.501840591430664 97.22200012207031 84.99616241455078" enable-background="new 0 0 100 100" xml:space="preserve" height="82.27777851572327" width="94.11260421246865" class="icon-icon-0" data-fill-palette-color="accent" id="icon-0"><g fill="#4b91f1" data-fill-palette-color="accent"><path d="M35.354 38.674c-4.607-1.465-9.238 0.162-10.343 3.635-1.104 3.473 1.735 7.475 6.342 8.94 4.608 1.465 9.238-0.162 10.343-3.635C42.8 44.143 39.96 40.14 35.354 38.674zM33.354 49.834c0 0-1.949-2.182-1.949-4.873s1.949-4.873 1.949-4.873 1.949 2.182 1.949 4.873S33.354 49.834 33.354 49.834z" fill="#000000" data-fill-palette-color="accent"></path><path d="M64.646 38.674c-4.605 1.465-7.446 5.468-6.342 8.941 1.104 3.473 5.733 5.1 10.342 3.635 4.607-1.466 7.444-5.469 6.343-8.94C73.885 38.836 69.254 37.209 64.646 38.674zM66.646 49.834c0 0-1.948-2.182-1.948-4.873s1.948-4.873 1.948-4.873 1.949 2.182 1.949 4.873S66.646 49.834 66.646 49.834z" fill="#000000" data-fill-palette-color="accent"></path><path d="M97.277 62.501l1.334-2.514c-1.572-0.834-4.104-2.18-7.444-3.329 0.259-1.871 0.396-3.782 0.396-5.724 0-5.188-0.961-9.88-2.861-13.967 0.451-0.408 0.88-0.814 1.295-1.231 8.984-8.983 6.213-25.861 6.09-26.575l-0.17-0.991L94.925 8c-0.713-0.123-17.593-2.895-26.577 6.089-1.701 1.702-3.209 3.543-4.486 5.481-4.256-0.883-8.913-1.33-13.859-1.33-4.946 0-9.604 0.447-13.859 1.33-1.279-1.938-2.785-3.779-4.487-5.481C22.669 5.106 5.789 7.877 5.077 8L4.085 8.17l-0.17 0.991c-0.123 0.714-2.896 17.592 6.089 26.575 0.416 0.417 0.845 0.823 1.296 1.231-1.9 4.087-2.862 8.778-2.862 13.967 0 1.94 0.138 3.853 0.396 5.724-3.339 1.149-5.872 2.495-7.445 3.329l1.335 2.514c1.415-0.752 3.66-1.943 6.606-2.988 0.345 1.633 0.784 3.231 1.313 4.789-2.407 0.93-4.828 2.085-7.223 3.491l1.439 2.453c1.949-1.144 4.285-2.24 6.835-3.185C18.005 81.994 32.799 92.498 50 92.498s31.996-10.504 38.307-25.437c2.549 0.943 4.885 2.041 6.834 3.185l1.44-2.453c-2.396-1.406-4.817-2.562-7.224-3.491 0.529-1.558 0.969-3.156 1.312-4.789C93.618 60.558 95.863 61.749 97.277 62.501zM88.398 55.815c-7.838-2.088-19.028-2.512-32.174 5.188l1.438 2.456c12.406-7.269 22.945-6.798 30.279-4.801-0.326 1.604-0.762 3.171-1.28 4.696-11.88-3.775-23.038-2.078-28.481 2.762l1.889 2.127c6.106-5.43 16.674-4.815 25.529-2.094C79.676 79.956 65.951 89.653 50 89.653c-15.95 0-29.676-9.697-35.599-23.504 8.856-2.723 19.422-3.336 25.528 2.094l1.891-2.127c-5.444-4.84-16.603-6.537-28.483-2.762-0.518-1.525-0.953-3.093-1.278-4.696 7.332-1.997 17.871-2.468 30.278 4.801l1.438-2.456c-13.146-7.699-24.336-7.275-32.174-5.188-0.203-1.602-0.318-3.227-0.318-4.879 0-5.16 1.021-9.76 3.038-13.668l0.518-1.002-0.859-0.732c-0.713-0.607-1.354-1.198-1.963-1.808-6.77-6.769-5.865-19.39-5.436-23.061 3.671-0.429 16.292-1.333 23.061 5.436 1.794 1.794 3.349 3.751 4.621 5.816l0.533 0.866 0.992-0.225C40.1 21.581 44.882 21.085 50 21.085c5.117 0 9.898 0.495 14.211 1.473l0.992 0.225 0.533-0.866c1.273-2.065 2.828-4.022 4.621-5.816 6.77-6.769 19.39-5.864 23.062-5.436 0.431 3.671 1.333 16.292-5.437 23.061-0.607 0.609-1.25 1.2-1.963 1.808l-0.858 0.732 0.517 1.002c2.018 3.908 3.039 8.508 3.039 13.668C88.717 52.589 88.602 54.214 88.398 55.815z" fill="#000000" data-fill-palette-color="accent"></path><path d="M54.807 77.217c-1.543-0.209-3.384-1.012-3.384-3.644V62.051c1.277-0.319 2.492-1.067 3.479-2.255 2.695-3.244 0.49-5.9-4.902-5.9-5.392 0-7.599 2.656-4.902 5.9 0.986 1.188 2.202 1.936 3.479 2.255v11.522c0 2.632-1.84 3.435-3.383 3.644-3.779 0.513-9.966-2.223-11.755-8.69l-2.741 0.759c1.933 6.985 8.215 10.844 13.502 10.844 0.468 0 0.929-0.03 1.377-0.092 1.896-0.257 3.409-1.066 4.423-2.281 1.014 1.215 2.527 2.024 4.423 2.281 0.448 0.062 0.909 0.092 1.376 0.092 5.287 0 11.571-3.858 13.503-10.844l-2.741-0.759C64.771 74.994 58.583 77.729 54.807 77.217z" fill="#000000" data-fill-palette-color="accent"></path></g></svg></g></svg></g><g></g></svg></g><defs></defs></svg><rect width="395.52" height="155.86792855667923" fill="none" stroke="none" visibility="hidden"></rect></g></svg></g></svg>